# xmcd CD database file
#
# Track frame offsets:
#	150
#	62752
#	78976
#	114060
#
# Disc length: 2031 seconds
#
# Revision: 0
# Processed by: cddbd v1.4PL0 Copyright (c) Steve Scherf et al.
# Submitted via: CDex 1.50
#
DISCID=2407ed04
DTITLE=Helena Caspurro - Mulher Avestruz
DYEAR=2003
DGENRE=Jazz
TTITLE0=Mulher Avestruz
TTITLE1=Satírica
TTITLE2=Corpus
TTITLE3=L-O-V-E You!
EXTD=YEAR: 2003
EXTT0=
EXTT1=
EXTT2=
EXTT3=
PLAYORDER=
